<svg width="34" height="35" viewBox="0 0 34 35" fill="none" xmlns="http://www.w3.org/2000/svg">
<path d="M34 3.58192H32.5833V0.796608H29.75V3.58192H4.25V0.796608H1.41667V3.58192H0V6.36723H1.41667V9.15254H4.25V6.36723H5.62983L12.75 16.5489V34.2203H15.5833V27.2571H18.4167V34.2203H21.25V16.5489L28.3702 6.36723H29.75V9.15254H32.5833V6.36723H34V3.58192ZM19.0882 14.7232H14.9132L9.0695 6.36723H24.9319L19.0882 14.7232ZM14.1667 10.5452C14.1667 9.00631 15.4346 7.75988 17 7.75988C18.5654 7.75988 19.8333 9.00631 19.8333 10.5452C19.8333 12.0841 18.5654 13.3305 17 13.3305C15.4346 13.3305 14.1667 12.0841 14.1667 10.5452Z" fill="white"/>
</svg>
