<svg width="83" height="81" viewBox="0 0 83 81" fill="none" xmlns="http://www.w3.org/2000/svg">
<rect x="10.4276" y="35.687" width="7.18847" height="47.4719" rx="3.59423" transform="rotate(-40.5501 10.4276 35.687)" fill="#5EA3FF"/>
<rect x="36.2483" y="13.595" width="7.18847" height="47.4719" rx="3.59423" transform="rotate(-40.5501 36.2483 13.595)" fill="#5EA3FF"/>
<rect x="47.4085" y="12.5659" width="7.18847" height="34.525" rx="3.59423" transform="rotate(-40.5501 47.4085 12.5659)" fill="#5EA3FF"/>
<rect x="6.7491" y="45.4606" width="7.18847" height="34.525" rx="3.59423" transform="rotate(-40.5501 6.7491 45.4606)" fill="#5EA3FF"/>
<rect x="29.5371" y="43.949" width="23.5259" height="9.35052" transform="rotate(-40.5501 29.5371 43.949)" fill="#003B79"/>
<path d="M61.8129 16.3339L62.776 15.5099C63.6153 14.7918 64.8778 14.89 65.5959 15.7293L69.0744 19.7948C69.7925 20.6341 69.6942 21.8966 68.8549 22.6147L67.8918 23.4387L61.8129 16.3339Z" fill="#003B79"/>
<path d="M13.458 60.3383C12.7399 59.499 12.8382 58.2365 13.6775 57.5184L14.6405 56.6944L20.7194 63.7993L19.7563 64.6233C18.917 65.3414 17.6545 65.2431 16.9364 64.4038L13.458 60.3383Z" fill="#003B79"/>
</svg>
