<svg width="71" height="69" viewBox="0 0 71 69" fill="none" xmlns="http://www.w3.org/2000/svg">
<rect x="8.83238" y="30.2277" width="6.08878" height="40.2097" rx="3.04439" transform="rotate(-40.5501 8.83238 30.2277)" fill="white"/>
<rect x="30.703" y="11.5153" width="6.08878" height="40.2097" rx="3.04439" transform="rotate(-40.5501 30.703 11.5153)" fill="white"/>
<rect x="40.1559" y="10.6437" width="6.08878" height="29.2434" rx="3.04439" transform="rotate(-40.5501 40.1559 10.6437)" fill="white"/>
<rect x="5.71663" y="38.5061" width="6.08878" height="29.2434" rx="3.04439" transform="rotate(-40.5501 5.71663 38.5061)" fill="white"/>
<rect x="25.0185" y="37.2257" width="19.9269" height="7.92008" transform="rotate(-40.5501 25.0185 37.2257)" fill="#001630"/>
<path d="M52.3568 13.8352L52.9401 13.3362C53.7794 12.6181 55.0419 12.7163 55.76 13.5556L58.3085 16.5343C59.0266 17.3736 58.9283 18.6361 58.089 19.3542L57.5058 19.8532L52.3568 13.8352Z" fill="#001630"/>
<path d="M11.5981 51.3403C10.88 50.501 10.9783 49.2384 11.8176 48.5204L12.4008 48.0213L17.5498 54.0393L16.9665 54.5383C16.1272 55.2564 14.8647 55.1582 14.1466 54.3189L11.5981 51.3403Z" fill="#001630"/>
</svg>
